<svg width="600" height="600" viewBox="0 0 600 600" fill="none" xmlns="http://www.w3.org/2000/svg">
  <rect width="600" height="600" rx="40" fill="#f8fafc"/>
  <path d="M200 140 C200 100 240 80 300 80 C360 80 400 100 400 140 V260 C400 300 370 330 330 340 L330 520 C330 540 314 556 294 556 H250 C230 556 214 540 214 520 V300 C214 260 200 220 200 200 Z" fill="#111827"/>
  <path d="M230 160 C230 130 258 116 300 116 C342 116 370 130 370 160 V250 C370 270 356 288 334 296 L334 500 C334 516 322 528 306 528 H270 C254 528 242 516 242 500 V300 C242 260 230 220 230 200 Z" fill="#1f2937"/>
  <rect x="252" y="320" width="96" height="14" rx="7" fill="#ef4444"/>
</svg>
